<?xml version="1.0" encoding="UTF-8"?>
<svg width="589.000000pt" height="423.000000pt" viewBox="0 0 589.000000 423.000000" preserveAspectRatio="xMidYMid meet" xmlns="http://www.w3.org/2000/svg">
  <style>
    path {
      fill: #000000;
    }
    @media (prefers-color-scheme: dark) {
      path {
        fill: #F5F0EA;
      }
    }
  </style>
  <g transform="translate(0.000000,423.000000) scale(0.100000,-0.100000)" fill="#000000" stroke="none">
    <path d="M3575 3990 c-515 -53 -881 -192 -1146 -437 -133 -123 -187 -166 -294 -235 -207 -132 -345 -176 -695 -217 -241 -29 -374 -56 -514 -102 -134 -45 -188 -71 -298 -141 -154 -99 -269 -260 -303 -426 -20 -98 -20 -439 0 -643 30 -302 149 -1176 179 -1316 22 -102 40 -140 78 -163 62 -38 140 -23 174 33 16 27 19 52 19 167 0 134 0 136 -47 275 -57 171 -78 256 -148 605 -78 396 -110 634 -110 832 0 250 106 426 321 530 201 98 315 124 799 183 249 31 403 72 554 146 130 65 185 107 326 249 74 75 156 150 181 168 177 120 563 255 852 296 377 55 826 -26 995 -179 71 -64 97 -113 142 -263 72 -241 114 -326 201 -406 82 -76 141 -101 351 -145 290 -62 352 -93 368 -182 10 -52 -5 -999 -20 -1249 -29 -493 -71 -731 -152 -848 -133 -193 -292 -244 -868 -277 -318 -18 -432 -18 -640 0 -656 57 -991 236 -1187 630 -87 174 -113 291 -113 500 0 169 17 275 68 425 120 350 335 565 624 624 262 54 607 -32 825 -206 251 -200 387 -603 299 -891 -80 -262 -357 -477 -616 -477 -201 0 -406 132 -500 323 -50 101 -60 171 -35 246 19 57 76 136 127 175 73 55 172 56 235 2 l27 -23 -17 -53 c-24 -73 -22 -97 12 -131 89 -89 265 31 266 181 0 145 -121 261 -302 291 -187 31 -391 -70 -480 -237 -51 -96 -67 -165 -67 -289 0 -129 17 -201 71 -313 47 -96 167 -221 259 -270 223 -117 542 -119 766 -6 328 165 496 513 449 924 -15 125 -48 234 -107 352 -123 249 -358 460 -612 552 -134 48 -206 60 -362 60 -249 0 -437 -63 -650 -219 -266 -194 -423 -473 -474 -843 -80 -574 171 -1079 648 -1302 184 -87 580 -170 960 -201 187 -15 724 -6 867 15 418 61 592 138 667 300 60 126 115 437 158 888 33 346 28 1265 -7 1430 -28 127 -111 186 -330 232 -249 52 -326 83 -407 166 -49 51 -70 104 -103 261 -39 188 -77 270 -162 353 -35 33 -98 81 -141 105 -210 119 -403 167 -701 175 -93 3 -210 1 -260 -4z"/>
  </g>
</svg>
